# xmcd CD database file
#
# Track frame offsets:
#	150
#	12185
#	22217
#	34790
#	48045
#	61372
#	73735
#	87800
#	99255
#	110325
#	123185
#	137510
#	150277
#	161940
#	175207
#
# Disc length: 2500 seconds
#
# Revision: 0
# Processed by: cddbd v1.5.2PL0 Copyright (c) Steve Scherf et al.
# Submitted via: CDex 1.51
#
DISCID=b709c20f
DTITLE=Various Artist - Living The Blues: 1945 - 1953 Jumpin' and Jivin' CD2
DYEAR=1999
DGENRE=Blues
TTITLE0=Sonny Thompson - Screamin' Boogie
TTITLE1=Percy Mayfield - I Dare You Baby
TTITLE2=Floyd Dixon - Wine Wine Wine
TTITLE3=Lucky Millinder and Orchestra with Wynonie Harris - Oh Babe
TTITLE4=Roy Brown - Cadillac Baby
TTITLE5=T Bone Walker - T Bone Jumps Again
TTITLE6=Jay McShann - Confessin' The Blues
TTITLE7=Clarence 'Gatemouth' Brown - Without Me Baby
TTITLE8=Joe Lutcher - Rockin' Boogie
TTITLE9=Roy Milton - Milton's Boogie
TTITLE10=Paul Williams - 35 30
TTITLE11=Amos Milburn - Rooming House Boogie
TTITLE12=Dave Bartholomew - Nickel Wine
TTITLE13=Jimmy Liggins - Nite Life Boogie
TTITLE14=Bull Moose Jackson - Cherokee Boogie
EXTD=YEAR: 1999
EXTT0=
EXTT1=
EXTT2=
EXTT3=
EXTT4=
EXTT5=
EXTT6=
EXTT7=
EXTT8=
EXTT9=
EXTT10=
EXTT11=
EXTT12=
EXTT13=
EXTT14=
PLAYORDER=
